<svg xmlns="http://www.w3.org/2000/svg" aria-hidden="true" overflow="hidden" style="position:absolute;width:0;height:0">
  <defs>
    <symbol id="icon-mail" viewBox="0 0 24 32">
      <path d="M20 8H4c-1 0-2 1-2 2v12c0 1 1 2 2 2h16c1 0 2-1 2-2V10c0-1-1-2-2-2zm-.4 4.3-7 4.4c-.3.2-.9.2-1.1 0l-7.1-4.4a.8.8 0 1 1 1-1.4l6.6 4 6.7-4 .4-.1a.8.8 0 0 1 .5 1.5z"/>
    </symbol>
    <symbol id="icon-person" viewBox="0 0 24 32">
      <path d="M12 16a4 4 0 0 0 0-8 4 4 0 0 0 0 8zm0 2c-2.7 0-8 1.3-8 4v1c0 .6.4 1 1 1h14c.6 0 1-.4 1-1v-1c0-2.7-5.3-4-8-4z"/>
    </symbol>
    <symbol id="icon-phone" viewBox="0 0 24 32">
      <path d="m19.6 18.5-2.4-.2c-.7-.2-1.2 0-1.6.5l-1.7 1.7c-2.7-1.3-5.1-3.6-6.4-6.4l1.7-1.7c.5-.4.7-1 .7-1.6l-.6-2.4c0-1-.9-1.7-1.8-1.7H6a2 2 0 0 0-2 2c.5 8.2 7 14.8 15.3 15.3 1.1 0 2-.8 2-1.9v-1.7c0-1-.6-1.7-1.7-1.9z"/>
    </symbol>
    <symbol id="icon-subscribe" viewBox="0 0 32 32">
      <path d="m32 2.7-32 15 10.3 3.1L26 8.5 14 22v7.4l5.7-5.6 7.4 2.3L32 2.7z"/>
    </symbol>
  </defs>
</svg>
